<?xml version="1.0" encoding="UTF-8"?><svg xmlns="http://www.w3.org/2000/svg" width="889.48" height="466.79" xmlns:xlink="http://www.w3.org/1999/xlink" viewBox="0 0 889.48 466.79"><defs><linearGradient id="d" x1="2643.68" y1="-183.89" x2="2643.68" y2="-55.23" gradientTransform="translate(2871.97 296.29) rotate(-180) scale(1 -1)" gradientUnits="userSpaceOnUse"><stop offset="0" stop-color="#8b00cc"/><stop offset="1" stop-color="#4d0070"/></linearGradient><linearGradient id="e" x1="2296.61" y1="-296.29" x2="2296.61" y2="125.47" gradientTransform="translate(-1721.25 125.47) scale(1 -1)" gradientUnits="userSpaceOnUse"><stop offset="0" stop-color="#d987ff"/><stop offset="1" stop-color="#4d0070"/></linearGradient><linearGradient id="f" x1="2247.03" y1="-257.9" x2="2247.03" y2="125.57" gradientTransform="translate(-1622.09 163.96) scale(1 -1)" xlink:href="#d"/><linearGradient id="g" x1="2197.45" y1="-210.17" x2="2197.45" y2="126.85" gradientTransform="translate(-1522.93 212.97) scale(1 -1)" xlink:href="#e"/><linearGradient id="h" x1="2147.87" y1="-136.19" x2="2147.87" y2="153.14" gradientTransform="translate(-1423.76 313.24) scale(1 -1)" xlink:href="#d"/><linearGradient id="i" x1="2098.29" y1="-147.23" x2="2098.29" y2="91.89" gradientTransform="translate(-1324.6 240.95) scale(1 -1)" xlink:href="#e"/><linearGradient id="j" x1="2048.7" y1="-160.39" x2="2048.7" y2="28.07" gradientTransform="translate(-1225.44 163.96) scale(1 -1)" xlink:href="#d"/><linearGradient id="k" x1="1999.12" y1="-92" x2="1999.12" y2="36.66" gradientTransform="translate(-1126.28 240.95) scale(1 -1)" xlink:href="#e"/><linearGradient id="l" x1="2346.19" y1="-257.9" x2="2346.19" y2="163.86" xlink:href="#d"/><linearGradient id="m" x1="2395.77" y1="-264.59" x2="2395.77" y2="118.88" gradientTransform="translate(2871.97 296.29) rotate(-180) scale(1 -1)" xlink:href="#e"/><linearGradient id="n" x1="2445.36" y1="-282.22" x2="2445.36" y2="54.81" xlink:href="#d"/><linearGradient id="o" x1="2494.94" y1="-219.04" x2="2494.94" y2="70.29" gradientTransform="translate(2871.97 296.29) rotate(-180) scale(1 -1)" xlink:href="#e"/><linearGradient id="p" x1="2544.52" y1="-239.12" x2="2544.52" y2="0" xlink:href="#d"/><linearGradient id="q" x1="2594.1" y1="-175.3" x2="2594.1" y2="13.16" gradientTransform="translate(2871.97 296.29) rotate(-180) scale(1 -1)" xlink:href="#e"/><linearGradient id="r" x1="661.19" y1="119.04" x2="661.19" y2="247.7" gradientTransform="translate(1322.38 366.74) rotate(180)" gradientUnits="userSpaceOnUse"><stop offset="0" stop-color="#00ccaf"/><stop offset="1" stop-color="#007060"/></linearGradient><linearGradient id="s" x1="314.12" y1="6.64" x2="314.12" y2="428.4" gradientUnits="userSpaceOnUse"><stop offset="0" stop-color="#00ffda"/><stop offset="1" stop-color="#007060"/></linearGradient><linearGradient id="t" x1="264.54" y1="45.03" x2="264.54" y2="428.5" gradientTransform="matrix(1,0,0,1,0,0)" xlink:href="#r"/><linearGradient id="u" x1="214.96" y1="92.76" x2="214.96" y2="429.78" xlink:href="#s"/><linearGradient id="v" x1="165.38" y1="166.74" x2="165.38" y2="456.07" gradientTransform="matrix(1,0,0,1,0,0)" xlink:href="#r"/><linearGradient id="w" x1="115.79" y1="155.7" x2="115.79" y2="394.82" xlink:href="#s"/><linearGradient id="x" x1="66.21" y1="142.54" x2="66.21" y2="331" gradientTransform="matrix(1,0,0,1,0,0)" xlink:href="#r"/><linearGradient id="y" x1="16.63" y1="210.93" x2="16.63" y2="339.59" xlink:href="#s"/><linearGradient id="z" x1="363.7" y1="45.03" x2="363.7" y2="466.79" gradientTransform="translate(727.4 511.82) rotate(-180)" xlink:href="#r"/><linearGradient id="aa" x1="413.28" y1="38.34" x2="413.28" y2="421.81" gradientTransform="translate(826.57 460.14) rotate(180)" xlink:href="#s"/><linearGradient id="ab" x1="462.86" y1="20.71" x2="462.86" y2="357.74" gradientTransform="translate(925.73 378.45) rotate(-180)" xlink:href="#r"/><linearGradient id="ac" x1="512.45" y1="83.89" x2="512.45" y2="373.22" gradientTransform="translate(1024.89 457.11) rotate(180)" xlink:href="#s"/><linearGradient id="ad" x1="562.03" y1="63.81" x2="562.03" y2="302.93" gradientTransform="translate(1124.05 366.74) rotate(-180)" xlink:href="#r"/><linearGradient id="ae" x1="611.61" y1="127.63" x2="611.61" y2="316.09" gradientTransform="translate(1223.22 443.72) rotate(-180)" xlink:href="#s"/></defs><g isolation="isolate"><g id="b"><g id="c"><rect x="211.66" y="112.4" width="33.26" height="128.66" rx="16.63" ry="16.63" fill="url(#d)"/><rect x="558.73" y="0" width="33.26" height="421.76" rx="16.28" ry="16.28" transform="translate(1150.72 421.76) rotate(-180)" fill="url(#e)"/><rect x="608.31" y="38.39" width="33.26" height="383.47" rx="16.63" ry="16.63" transform="translate(1249.88 460.25) rotate(-180)" fill="url(#f)"/><rect x="657.89" y="86.11" width="33.26" height="337.03" rx="16.63" ry="16.63" transform="translate(1349.04 509.25) rotate(180)" fill="url(#g)"/><rect x="707.47" y="160.1" width="33.26" height="289.33" rx="16.63" ry="16.63" transform="translate(1448.21 609.53) rotate(-180)" fill="url(#h)"/><rect x="757.05" y="149.06" width="33.26" height="239.12" rx="16.63" ry="16.63" transform="translate(1547.37 537.24) rotate(-180)" fill="url(#i)"/><rect x="806.63" y="135.9" width="33.26" height="188.46" rx="16.63" ry="16.63" transform="translate(1646.53 460.25) rotate(-180)" fill="url(#j)"/><rect x="856.22" y="204.29" width="33.26" height="128.66" rx="16.63" ry="16.63" transform="translate(1745.7 537.24) rotate(-180)" fill="url(#k)"/><rect x="509.15" y="38.39" width="33.26" height="421.76" rx="16.28" ry="16.28" fill="url(#l)"/><rect x="459.56" y="31.69" width="33.26" height="383.47" rx="16.63" ry="16.63" fill="url(#m)"/><rect x="409.98" y="14.07" width="33.26" height="337.03" rx="16.63" ry="16.63" fill="url(#n)"/><rect x="360.4" y="77.25" width="33.26" height="289.33" rx="16.63" ry="16.63" fill="url(#o)"/><rect x="310.82" y="57.17" width="33.26" height="239.12" rx="16.63" ry="16.63" fill="url(#p)"/><rect x="261.24" y="120.99" width="33.26" height="188.46" rx="16.63" ry="16.63" fill="url(#q)"/><g mix-blend-mode="lighten"><rect x="644.56" y="119.04" width="33.26" height="128.66" rx="16.63" ry="16.63" transform="translate(1322.38 366.74) rotate(-180)" fill="url(#r)"/><rect x="297.49" y="6.64" width="33.26" height="421.76" rx="16.28" ry="16.28" fill="url(#s)"/><rect x="247.91" y="45.03" width="33.26" height="383.47" rx="16.63" ry="16.63" fill="url(#t)"/><rect x="198.33" y="92.76" width="33.26" height="337.03" rx="16.63" ry="16.63" fill="url(#u)"/><rect x="148.74" y="166.74" width="33.26" height="289.33" rx="16.63" ry="16.63" fill="url(#v)"/><rect x="99.16" y="155.7" width="33.26" height="239.12" rx="16.63" ry="16.63" fill="url(#w)"/><rect x="49.58" y="142.54" width="33.26" height="188.46" rx="16.63" ry="16.63" fill="url(#x)"/><rect x="0" y="210.93" width="33.26" height="128.66" rx="16.63" ry="16.63" fill="url(#y)"/><rect x="347.07" y="45.03" width="33.26" height="421.76" rx="16.28" ry="16.28" transform="translate(727.4 511.82) rotate(180)" fill="url(#z)"/><rect x="396.65" y="38.34" width="33.26" height="383.47" rx="16.63" ry="16.63" transform="translate(826.57 460.14) rotate(-180)" fill="url(#aa)"/><rect x="446.23" y="20.71" width="33.26" height="337.03" rx="16.63" ry="16.63" transform="translate(925.73 378.45) rotate(180)" fill="url(#ab)"/><rect x="495.81" y="83.89" width="33.26" height="289.33" rx="16.63" ry="16.63" transform="translate(1024.89 457.11) rotate(-180)" fill="url(#ac)"/><rect x="545.4" y="63.81" width="33.26" height="239.12" rx="16.63" ry="16.63" transform="translate(1124.05 366.74) rotate(180)" fill="url(#ad)"/><rect x="594.98" y="127.63" width="33.26" height="188.46" rx="16.63" ry="16.63" transform="translate(1223.22 443.72) rotate(180)" fill="url(#ae)"/></g></g></g></g></svg>