<?xml version="1.0" encoding="UTF-8"?><svg xmlns="http://www.w3.org/2000/svg" xmlns:xlink="http://www.w3.org/1999/xlink" viewBox="0 0 200 104.96"><defs><linearGradient id="d" x1="-921.95" y1="-271.02" x2="-921.95" y2="-242.09" gradientTransform="translate(-870.61 296.29) rotate(-180) scale(1 -1)" gradientUnits="userSpaceOnUse"><stop offset="0" stop-color="#8b00cc"/><stop offset="1" stop-color="#4d0070"/></linearGradient><linearGradient id="e" x1="-999.98" y1="-296.29" x2="-999.98" y2="-201.46" gradientTransform="translate(1129.35 -201.46) scale(1 -1)" gradientUnits="userSpaceOnUse"><stop offset="0" stop-color="#d987ff"/><stop offset="1" stop-color="#4d0070"/></linearGradient><linearGradient id="f" x1="-1011.13" y1="-287.66" x2="-1011.13" y2="-201.43" gradientTransform="translate(1151.65 -192.8) scale(1 -1)" xlink:href="#d"/><linearGradient id="g" x1="-1022.28" y1="-276.93" x2="-1022.28" y2="-201.14" gradientTransform="translate(1173.95 -181.78) scale(1 -1)" xlink:href="#e"/><linearGradient id="h" x1="-1033.43" y1="-260.29" x2="-1033.43" y2="-195.23" gradientTransform="translate(1196.25 -159.24) scale(1 -1)" xlink:href="#d"/><linearGradient id="i" x1="-1044.58" y1="-262.77" x2="-1044.58" y2="-209.01" gradientTransform="translate(1218.54 -175.49) scale(1 -1)" xlink:href="#e"/><linearGradient id="j" x1="-1055.73" y1="-265.73" x2="-1055.73" y2="-223.36" gradientTransform="translate(1240.84 -192.8) scale(1 -1)" xlink:href="#d"/><linearGradient id="k" x1="-1066.88" y1="-250.35" x2="-1066.88" y2="-221.42" gradientTransform="translate(1263.14 -175.49) scale(1 -1)" xlink:href="#e"/><linearGradient id="l" x1="-988.84" y1="-287.66" x2="-988.84" y2="-192.82" xlink:href="#d"/><linearGradient id="m" x1="-977.69" y1="-289.16" x2="-977.69" y2="-202.94" gradientTransform="translate(-870.61 296.29) rotate(-180) scale(1 -1)" xlink:href="#e"/><linearGradient id="n" x1="-966.54" y1="-293.12" x2="-966.54" y2="-217.34" xlink:href="#d"/><linearGradient id="o" x1="-955.39" y1="-278.92" x2="-955.39" y2="-213.86" gradientTransform="translate(-870.61 296.29) rotate(-180) scale(1 -1)" xlink:href="#e"/><linearGradient id="p" x1="-944.24" y1="-283.43" x2="-944.24" y2="-229.67" xlink:href="#d"/><linearGradient id="q" x1="-933.09" y1="-269.08" x2="-933.09" y2="-226.71" gradientTransform="translate(-870.61 296.29) rotate(-180) scale(1 -1)" xlink:href="#e"/><linearGradient id="r" x1="148.67" y1="26.77" x2="148.67" y2="55.7" gradientTransform="translate(297.34 82.46) rotate(-180)" gradientUnits="userSpaceOnUse"><stop offset="0" stop-color="#00ccaf"/><stop offset="1" stop-color="#007060"/></linearGradient><linearGradient id="s" x1="70.63" y1="1.49" x2="70.63" y2="96.33" gradientUnits="userSpaceOnUse"><stop offset="0" stop-color="#00ffda"/><stop offset="1" stop-color="#007060"/></linearGradient><linearGradient id="t" x1="59.48" y1="10.13" x2="59.48" y2="96.35" gradientTransform="matrix(1,0,0,1,0,0)" xlink:href="#r"/><linearGradient id="u" x1="48.33" y1="20.86" x2="48.33" y2="96.64" xlink:href="#s"/><linearGradient id="v" x1="37.18" y1="37.49" x2="37.18" y2="102.55" gradientTransform="matrix(1,0,0,1,0,0)" xlink:href="#r"/><linearGradient id="w" x1="26.04" y1="35.01" x2="26.04" y2="88.78" xlink:href="#s"/><linearGradient id="x" x1="14.89" y1="32.05" x2="14.89" y2="74.42" gradientTransform="matrix(1,0,0,1,0,0)" xlink:href="#r"/><linearGradient id="y" x1="3.74" y1="47.43" x2="3.74" y2="76.36" xlink:href="#s"/><linearGradient id="z" x1="81.78" y1="10.13" x2="81.78" y2="104.96" gradientTransform="translate(163.56 115.08) rotate(-180)" xlink:href="#r"/><linearGradient id="aa" x1="92.93" y1="8.62" x2="92.93" y2="94.84" gradientTransform="translate(185.85 103.46) rotate(-180)" xlink:href="#s"/><linearGradient id="ab" x1="104.08" y1="4.66" x2="104.08" y2="80.44" gradientTransform="translate(208.15 85.1) rotate(-180)" xlink:href="#r"/><linearGradient id="ac" x1="115.22" y1="18.86" x2="115.22" y2="83.92" gradientTransform="translate(230.45 102.78) rotate(180)" xlink:href="#s"/><linearGradient id="ad" x1="126.37" y1="14.35" x2="126.37" y2="68.11" gradientTransform="translate(252.74 82.46) rotate(-180)" xlink:href="#r"/><linearGradient id="ae" x1="137.52" y1="28.7" x2="137.52" y2="71.07" gradientTransform="translate(275.04 99.77) rotate(-180)" xlink:href="#s"/></defs><g isolation="isolate"><g id="b"><g id="c"><rect x="47.59" y="25.27" width="7.48" height="28.93" rx="3.74" ry="3.74" fill="url(#d)"/><rect x="125.63" y="0" width="7.48" height="94.83" rx="3.66" ry="3.66" transform="translate(258.74 94.83) rotate(-180)" fill="url(#e)"/><rect x="136.78" y="8.63" width="7.48" height="86.22" rx="3.74" ry="3.74" transform="translate(281.04 103.49) rotate(-180)" fill="url(#f)"/><rect x="147.93" y="19.36" width="7.48" height="75.78" rx="3.74" ry="3.74" transform="translate(303.33 114.51) rotate(-180)" fill="url(#g)"/><rect x="159.08" y="36" width="7.48" height="65.06" rx="3.74" ry="3.74" transform="translate(325.63 137.05) rotate(-180)" fill="url(#h)"/><rect x="170.22" y="33.52" width="7.48" height="53.77" rx="3.74" ry="3.74" transform="translate(347.93 120.8) rotate(180)" fill="url(#i)"/><rect x="181.37" y="30.56" width="7.48" height="42.38" rx="3.74" ry="3.74" transform="translate(370.22 103.49) rotate(180)" fill="url(#j)"/><rect x="192.52" y="45.93" width="7.48" height="28.93" rx="3.74" ry="3.74" transform="translate(392.52 120.8) rotate(180)" fill="url(#k)"/><rect x="114.48" y="8.63" width="7.48" height="94.83" rx="3.66" ry="3.66" fill="url(#l)"/><rect x="103.33" y="7.13" width="7.48" height="86.22" rx="3.74" ry="3.74" fill="url(#m)"/><rect x="92.19" y="3.16" width="7.48" height="75.78" rx="3.74" ry="3.74" fill="url(#n)"/><rect x="81.04" y="17.37" width="7.48" height="65.06" rx="3.74" ry="3.74" fill="url(#o)"/><rect x="69.89" y="12.85" width="7.48" height="53.77" rx="3.74" ry="3.74" fill="url(#p)"/><rect x="58.74" y="27.2" width="7.48" height="42.38" rx="3.74" ry="3.74" fill="url(#q)"/><g mix-blend-mode="lighten"><rect x="144.93" y="26.77" width="7.48" height="28.93" rx="3.74" ry="3.74" transform="translate(297.34 82.46) rotate(180)" fill="url(#r)"/><rect x="66.89" y="1.49" width="7.48" height="94.83" rx="3.66" ry="3.66" fill="url(#s)"/><rect x="55.74" y="10.13" width="7.48" height="86.22" rx="3.74" ry="3.74" fill="url(#t)"/><rect x="44.59" y="20.86" width="7.48" height="75.78" rx="3.74" ry="3.74" fill="url(#u)"/><rect x="33.45" y="37.49" width="7.48" height="65.06" rx="3.74" ry="3.74" fill="url(#v)"/><rect x="22.3" y="35.01" width="7.48" height="53.77" rx="3.74" ry="3.74" fill="url(#w)"/><rect x="11.15" y="32.05" width="7.48" height="42.38" rx="3.74" ry="3.74" fill="url(#x)"/><rect x="0" y="47.43" width="7.48" height="28.93" rx="3.74" ry="3.74" fill="url(#y)"/><rect x="78.04" y="10.13" width="7.48" height="94.83" rx="3.66" ry="3.66" transform="translate(163.56 115.08) rotate(180)" fill="url(#z)"/><rect x="89.19" y="8.62" width="7.48" height="86.22" rx="3.74" ry="3.74" transform="translate(185.85 103.46) rotate(180)" fill="url(#aa)"/><rect x="100.34" y="4.66" width="7.48" height="75.78" rx="3.74" ry="3.74" transform="translate(208.15 85.1) rotate(180)" fill="url(#ab)"/><rect x="111.48" y="18.86" width="7.48" height="65.06" rx="3.74" ry="3.74" transform="translate(230.45 102.78) rotate(-180)" fill="url(#ac)"/><rect x="122.63" y="14.35" width="7.48" height="53.77" rx="3.74" ry="3.74" transform="translate(252.74 82.46) rotate(180)" fill="url(#ad)"/><rect x="133.78" y="28.7" width="7.48" height="42.38" rx="3.74" ry="3.74" transform="translate(275.04 99.77) rotate(180)" fill="url(#ae)"/></g></g></g></g></svg>